<?xml version="1.0" encoding="UTF-8" standalone="no"?>
<!-- Created with Inkscape (http://www.inkscape.org/) -->

<svg
   xmlns:dc="http://purl.org/dc/elements/1.1/"
   xmlns:cc="http://creativecommons.org/ns#"
   xmlns:rdf="http://www.w3.org/1999/02/22-rdf-syntax-ns#"
   xmlns:svg="http://www.w3.org/2000/svg"
   xmlns="http://www.w3.org/2000/svg"
   xmlns:sodipodi="http://sodipodi.sourceforge.net/DTD/sodipodi-0.dtd"
   xmlns:inkscape="http://www.inkscape.org/namespaces/inkscape"
   width="325"
   height="100"
   id="svg2"
   version="1.1"
   inkscape:version="0.48.2 r9819"
   sodipodi:docname="sprite.svg"
   inkscape:export-filename="/Users/djohnson/github/copies/lri-mapping/img/sprite.png"
   inkscape:export-xdpi="90"
   inkscape:export-ydpi="90">
  <defs
     id="defs4">
    <filter
       inkscape:collect="always"
       id="filter3797">
      <feGaussianBlur
         inkscape:collect="always"
         stdDeviation="2.8903903"
         id="feGaussianBlur3799" />
    </filter>
    <filter
       inkscape:collect="always"
       id="filter3853"
       x="-0.1220339"
       width="1.2440678"
       y="-0.1220339"
       height="1.2440678">
      <feGaussianBlur
         inkscape:collect="always"
         stdDeviation="7.7077076"
         id="feGaussianBlur3855" />
    </filter>
  </defs>
  <sodipodi:namedview
     id="base"
     pagecolor="#ffffff"
     bordercolor="#666666"
     borderopacity="1.0"
     inkscape:pageopacity="0.0"
     inkscape:pageshadow="2"
     inkscape:zoom="1.3938633"
     inkscape:cx="158.91085"
     inkscape:cy="45.437475"
     inkscape:document-units="px"
     inkscape:current-layer="layer1"
     showgrid="false"
     inkscape:window-width="958"
     inkscape:window-height="674"
     inkscape:window-x="214"
     inkscape:window-y="27"
     inkscape:window-maximized="0" />
  <metadata
     id="metadata7">
    <rdf:RDF>
      <cc:Work
         rdf:about="">
        <dc:format>image/svg+xml</dc:format>
        <dc:type
           rdf:resource="http://purl.org/dc/dcmitype/StillImage" />
        <dc:title></dc:title>
      </cc:Work>
    </rdf:RDF>
  </metadata>
  <g
     inkscape:label="Layer 1"
     inkscape:groupmode="layer"
     id="layer1"
     transform="translate(0,-952.36218)">
    <path
       style="color:#000000;fill:#cccccc;fill-opacity:1;fill-rule:nonzero;stroke:none;stroke-width:0.64300001;marker:none;visibility:visible;display:inline;overflow:visible;enable-background:accumulate"
       d="M -4.9418768e-8,952.34483 9.9999989,957.97343 -4.9418768e-8,963.60203 z"
       id="rect2985"
       inkscape:connector-curvature="0"
       sodipodi:nodetypes="cccc" />
    <path
       style="color:#000000;fill:#cccccc;fill-opacity:1;fill-rule:nonzero;stroke:none;stroke-width:0.64300001;marker:none;visibility:visible;display:inline;overflow:visible;enable-background:accumulate"
       d="m 39.439482,952.41862 -5.628595,10 -5.628566,-10 z"
       id="rect2985-9"
       inkscape:connector-curvature="0"
       sodipodi:nodetypes="cccc" />
    <g
       id="g3026"
       transform="matrix(1.0101525,0,0,1.0101525,2.5961339,49.949724)">
      <rect
         transform="matrix(0.70710678,0.70710678,-0.70710678,0.70710678,0,0)"
         y="625.50604"
         x="735.87146"
         height="2"
         width="40"
         id="rect3006"
         style="color:#000000;fill:#000000;fill-opacity:1;fill-rule:nonzero;stroke:none;stroke-width:0.64300001;marker:none;visibility:visible;display:inline;overflow:visible;enable-background:accumulate" />
      <rect
         transform="matrix(-0.70710678,0.70710678,0.70710678,0.70710678,0,0)"
         y="754.87146"
         x="606.50604"
         height="2"
         width="40"
         id="rect3006-4"
         style="color:#000000;fill:#000000;fill-opacity:1;fill-rule:nonzero;stroke:none;stroke-width:0.64300001;marker:none;visibility:visible;display:inline;overflow:visible;enable-background:accumulate" />
    </g>
    <path
       sodipodi:type="arc"
       style="fill:#ffffff;fill-opacity:1;stroke:#8d9c21;stroke-width:12.68968487000000067;stroke-miterlimit:4;stroke-opacity:0.66222221;stroke-dasharray:none;filter:url(#filter3797)"
       id="path2989"
       sodipodi:cx="229.29616"
       sodipodi:cy="75.535347"
       sodipodi:rx="75.792458"
       sodipodi:ry="75.792458"
       d="m 305.08862,75.535347 c 0,41.859023 -33.93344,75.792453 -75.79246,75.792453 -41.85902,0 -75.79246,-33.93343 -75.79246,-75.792453 0,-41.859018 33.93344,-75.7924576 75.79246,-75.7924576 41.85902,0 75.79246,33.9334396 75.79246,75.7924576 z"
       transform="matrix(0.50316458,0,0,0.50316458,52.760821,972.8615)" />
    <path
       transform="matrix(0.50316458,0,0,0.50316458,151.81163,972.8615)"
       d="m 305.08862,75.535347 a 75.792458,75.792458 0 1 1 -151.58492,0 75.792458,75.792458 0 1 1 151.58492,0 z"
       sodipodi:ry="75.792458"
       sodipodi:rx="75.792458"
       sodipodi:cy="75.535347"
       sodipodi:cx="229.29616"
       id="path3763"
       style="fill:#769057;fill-opacity:1;stroke:#000000;stroke-width:12.68968487;stroke-miterlimit:4;stroke-opacity:0.84444442;stroke-dasharray:none;filter:url(#filter3853)"
       sodipodi:type="arc"
       inkscape:export-xdpi="90"
       inkscape:export-ydpi="90" />
    <path
       sodipodi:type="arc"
       style="fill:#ffffff;fill-opacity:1;stroke:none"
       id="path3859"
       sodipodi:cx="172.69167"
       sodipodi:cy="67.380463"
       sodipodi:rx="34.058636"
       sodipodi:ry="34.058636"
       d="m 206.7503,67.380463 c 0,18.810065 -15.24857,34.058637 -34.05863,34.058637 -18.81007,0 -34.05864,-15.248572 -34.05864,-34.058637 0,-18.810065 15.24857,-34.058636 34.05864,-34.058636 18.81006,0 34.05863,15.248571 34.05863,34.058636 z"
       transform="matrix(1.028169,0,0,1.028169,-9.6615443,941.97005)" />
    <path
       transform="matrix(1.1554032,0,0,1.1554032,67.175198,931.82846)"
       d="m 206.7503,67.380463 a 34.058636,34.058636 0 1 1 -68.11727,0 34.058636,34.058636 0 1 1 68.11727,0 z"
       sodipodi:ry="34.058636"
       sodipodi:rx="34.058636"
       sodipodi:cy="67.380463"
       sodipodi:cx="172.69167"
       id="path3861"
       style="fill:#b8d317;fill-opacity:1;stroke:none"
       sodipodi:type="arc" />
  </g>
</svg>
